0
SECTION
2
HEADER
0
ENDSEC
0
SECTION
2
TABLES
0
TABLE
2
LTYPE
0
LTYPE
72
65
70
64
2
CONTINUOUS
3
______
73
0
40
0
0
ENDTAB
0
TABLE
2
LAYER
0
ENDTAB
0
ENDSEC
0
SECTION
2
ENTITIES
0
LINE
8
0
10
10
20
1286
11
10
21
1278.0568333
0
LINE
8
0
10
10
20
1278.0568333
11
110.4705882
21
1276.3994805
0
LINE
8
0
10
110.4705882
20
1276.3994805
11
210.9411765
21
1256.9963252
0
LINE
8
0
10
210.9411765
20
1256.9963252
11
311.4117647
21
1198.7060128
0
LINE
8
0
10
311.4117647
20
1198.7060128
11
411.8823529
21
1183.9515301
0
LINE
8
0
10
411.8823529
20
1183.9515301
11
512.3529412
21
1128.6727492
0
LINE
8
0
10
512.3529412
20
1128.6727492
11
612.8235294
21
1125.0548692
0
LINE
8
0
10
612.8235294
20
1125.0548692
11
713.2941176
21
1117.5563581
0
LINE
8
0
10
713.2941176
20
1117.5563581
11
813.7647059
21
1000.0055756
0
LINE
8
0
10
813.7647059
20
1000.0055756
11
914.2352941
21
929.4468099
0
LINE
8
0
10
914.2352941
20
929.4468099
11
1014.7058824
21
898.5230311
0
LINE
8
0
10
1014.7058824
20
898.5230311
11
1115.1764706
21
833.4011912
0
LINE
8
0
10
1115.1764706
20
833.4011912
11
1215.6470588
21
738.4874232
0
LINE
8
0
10
1215.6470588
20
738.4874232
11
1316.1176471
21
603.2514731
0
LINE
8
0
10
1316.1176471
20
603.2514731
11
1416.5882353
21
303.9982259
0
LINE
8
0
10
1416.5882353
20
303.9982259
11
1517.0588235
21
295.428499
0
LINE
8
0
10
1517.0588235
20
295.428499
11
1617.5294118
21
262.2208072
0
LINE
8
0
10
1617.5294118
20
262.2208072
11
1718
21
10
0
LINE
8
0
10
1718
20
10
11
1718
21
1286
0
LINE
8
0
10
1718
20
1286
11
10
21
1286
0
LINE
8
0
10
1818
20
1286
11
1818
21
1244.0204651
0
LINE
8
0
10
1818
20
1244.0204651
11
1918.4705882
21
1168.1460432
0
LINE
8
0
10
1918.4705882
20
1168.1460432
11
2018.9411765
21
1114.2214408
0
LINE
8
0
10
2018.9411765
20
1114.2214408
11
2119.4117647
21
1047.8464804
0
LINE
8
0
10
2119.4117647
20
1047.8464804
11
2219.8823529
21
970.3147057
0
LINE
8
0
10
2219.8823529
20
970.3147057
11
2320.3529412
21
864.4462396
0
LINE
8
0
10
2320.3529412
20
864.4462396
11
2420.8235294
21
796.0501172
0
LINE
8
0
10
2420.8235294
20
796.0501172
11
2521.2941176
21
745.197681
0
LINE
8
0
10
2521.2941176
20
745.197681
11
2621.7647059
21
664.8969144
0
LINE
8
0
10
2621.7647059
20
664.8969144
11
2722.2352941
21
597.4911614
0
LINE
8
0
10
2722.2352941
20
597.4911614
11
2822.7058824
21
510.2173858
0
LINE
8
0
10
2822.7058824
20
510.2173858
11
2923.1764706
21
428.6230755
0
LINE
8
0
10
2923.1764706
20
428.6230755
11
3023.6470588
21
367.9073687
0
LINE
8
0
10
3023.6470588
20
367.9073687
11
3124.1176471
21
299.1878604
0
LINE
8
0
10
3124.1176471
20
299.1878604
11
3224.5882353
21
223.3538617
0
LINE
8
0
10
3224.5882353
20
223.3538617
11
3325.0588235
21
163.9519103
0
LINE
8
0
10
3325.0588235
20
163.9519103
11
3425.5294118
21
116.616296
0
LINE
8
0
10
3425.5294118
20
116.616296
11
3526
21
61.8225939
0
LINE
8
0
10
3526
20
61.8225939
11
3526
21
1286
0
LINE
8
0
10
3526
20
1286
11
1818
21
1286
0
LINE
8
0
10
3626
20
1286
11
3626
21
1249.7201419
0
LINE
8
0
10
3626
20
1249.7201419
11
3726.4705882
21
1234.9050244
0
LINE
8
0
10
3726.4705882
20
1234.9050244
11
3826.9411765
21
1197.9986061
0
LINE
8
0
10
3826.9411765
20
1197.9986061
11
3927.4117647
21
1120.487043
0
LINE
8
0
10
3927.4117647
20
1120.487043
11
4027.8823529
21
1080.5488817
0
LINE
8
0
10
4027.8823529
20
1080.5488817
11
4128.3529412
21
1009.3029209
0
LINE
8
0
10
4128.3529412
20
1009.3029209
11
4228.8235294
21
979.6120509
0
LINE
8
0
10
4228.8235294
20
979.6120509
11
4329.2941176
21
951.0732434
0
LINE
8
0
10
4329.2941176
20
951.0732434
11
4429.7647059
21
919.7654438
0
LINE
8
0
10
4429.7647059
20
919.7654438
11
4530.2352941
21
886.9619844
0
LINE
8
0
10
4530.2352941
20
886.9619844
11
4630.7058824
21
854.1383134
0
LINE
8
0
10
4630.7058824
20
854.1383134
11
4731.1764706
21
810.0971932
0
LINE
8
0
10
4731.1764706
20
810.0971932
11
4831.6470588
21
780.4467465
0
LINE
8
0
10
4831.6470588
20
780.4467465
11
4932.1176471
21
746.5720712
0
LINE
8
0
10
4932.1176471
20
746.5720712
11
5032.5882353
21
699.074764
0
LINE
8
0
10
5032.5882353
20
699.074764
11
5133.0588235
21
678.4791231
0
LINE
8
0
10
5133.0588235
20
678.4791231
11
5233.5294118
21
656.7718431
0
LINE
8
0
10
5233.5294118
20
656.7718431
11
5334
21
635.0039283
0
LINE
8
0
10
5334
20
635.0039283
11
5334
21
1286
0
LINE
8
0
10
5334
20
1286
11
3626
21
1286
0
ENDSEC
0
EOF